<?xml version="1.0" encoding="utf-8"?>
<!-- Generator: Adobe Illustrator 23.0.3, SVG Export Plug-In . SVG Version: 6.00 Build 0)  -->
<svg version="1.1" id="Layer_1" xmlns="http://www.w3.org/2000/svg" xmlns:xlink="http://www.w3.org/1999/xlink" x="0px" y="0px"
	 viewBox="0 0 191.8 141.4" style="enable-background:new 0 0 191.8 141.4;" xml:space="preserve">
<style type="text/css">
	.st0{fill:#FFFFFF;}
	.st1{fill:#757575;}
	.st2{fill:#424242;}
	.st3{fill:#64B5F6;}
</style>
<g>
	<path class="st0" d="M70.7,70.7l20.1,20.1L70.7,70.7z M95.9,45.5L121,70.7L95.8,95.9l0.1,0.1l25.3-25.3L95.9,45.5z"/>
	<path class="st1" d="M191.8,70.7l-70.7,70.7l-25.3-25.3L85.7,106L50.5,70.7l35.2-35.3l10.1,10.1L70.7,70.7l20.1,20.1l5,5.1
		l10.1,10.1l15.2,15.2l50.5-50.5l-50.5-50.5l-15.2,15.2L95.8,25.3L121.1,0L191.8,70.7z"/>
	<path class="st2" d="M141.3,70.7L105.9,106L95.8,95.9l0.1,0.1l25.3-25.3L95.9,45.5h-0.1L85.7,35.4L70.6,20.2L20.2,70.7l50.4,50.5
		L85.7,106l10.1,10.1l-25.2,25.3L0,70.7L70.6,0l25.2,25.3l10.1,10.1L141.3,70.7z"/>
	<path class="st3" d="M121,70.7L95.8,96l-5.1-5.1L70.6,70.7l25.2-25.2L121,70.7z"/>
</g>
</svg>
